# xmcd
#
# Track frame offsets:
#	150
#	15568
#	31482
#	48383
#	68863
#	86538
#	101482
#	112477
#	126616
#	140329
#	158367
#
# Disc length: 2343 seconds
#
# Revision: 1
# Processed by: cddbd v1.5.1PL0 Copyright (c) Steve Scherf et al.
# Submitted via: EasyCDDAExtractor 7.0.9.1
#
DISCID=9409250b
DTITLE=Junkyard Jane - Ductape and Sagebrush
DYEAR=2002
DGENRE=Alternative
TTITLE0=Little Suzie
TTITLE1=Ductape and Sagebrush
TTITLE2=On The Lam
TTITLE3=Frisco To Tulsa
TTITLE4=Follow
TTITLE5=Give Up The Ghost
TTITLE6=Car Without A Driver
TTITLE7=Teardrops Flicker
TTITLE8=Old Shoe
TTITLE9=Where Is The Sandman
TTITLE10=Empty Man
EXTD=
EXTT0=
EXTT1=
EXTT2=
EXTT3=
EXTT4=
EXTT5=
EXTT6=
EXTT7=
EXTT8=
EXTT9=
EXTT10=
PLAYORDER=
